<svg id="Layer_1" data-name="Layer 1" xmlns="http://www.w3.org/2000/svg" viewBox="0 0 559.97 232.26"><defs><style>.cls-1{stroke:#000;stroke-miterlimit:10;stroke-width:50px;}.cls-2{fill:#38a1f3;}</style></defs><title>p2f</title><path class="cls-1" d="M582.62,433.51a38.49,38.49,0,0,1-4.39,17.17,76.78,76.78,0,0,1-11.82,17.1,115.68,115.68,0,0,1-17.34,15.62,144.71,144.71,0,0,1-20.78,12.85A126.56,126.56,0,0,1,506.08,505a78.77,78.77,0,0,1-21.63,3.25,70.38,70.38,0,0,1-10.58-.7,32.91,32.91,0,0,1-7.15-1.78c1.78.83,4.32,1.83,7.63,3a54.13,54.13,0,0,0,12.39,2.55,97.35,97.35,0,0,0-1.34,13.77A76,76,0,0,0,486.55,540q1.14,7,3.62,10.76A20.49,20.49,0,0,1,493,556.2c.12.51-.76,1-2.67,1.55a40.77,40.77,0,0,1-5.34,1.08c-.89.1-2.7.2-5.43.31a23,23,0,0,1-17.82-8q-4.2-4.64-5.72-14.23a40.71,40.71,0,0,1,.76-16.56,80.39,80.39,0,0,1,6.29-16.86q-2.67-3.4,3.81-7a127.44,127.44,0,0,1,10.49-14.86,137.18,137.18,0,0,1,11.24-12.22,82.81,82.81,0,0,1,10.2-8.43q4.67-3.17,7.53-3.48,2.67-.32,3.24,3.09a12.34,12.34,0,0,1-1.9,3.17q-1.92,2.72-4.87,7.35t-6.38,11.14a98.33,98.33,0,0,0-6.1,14.39A35.23,35.23,0,0,0,504,492.22a68.48,68.48,0,0,0,13.34-9.59,110.23,110.23,0,0,0,12.11-13A129.27,129.27,0,0,0,539.54,455a100.94,100.94,0,0,0,7.15-14.54A49.8,49.8,0,0,0,550,427.86c.38-3.66-.09-6.6-1.43-8.82s-3.65-3.33-7-3.33A53.91,53.91,0,0,0,521.52,420a111.48,111.48,0,0,0-20.77,11.14,143.71,143.71,0,0,0-19.35,15.7,167.14,167.14,0,0,0-16.11,17.79,101.7,101.7,0,0,0-11.05,17.33q-4.1,8.35-4.1,14.55a3.33,3.33,0,0,1-1,.77,4.56,4.56,0,0,1-1.35.46,11.77,11.77,0,0,1-2.3.16,34.52,34.52,0,0,1-5.09-.62,21.52,21.52,0,0,1-7.39-2.94,20.93,20.93,0,0,1-6.72-6.81c-1.91-3-2.88-7.06-2.88-12.22q0-6.34,4.9-14.31a81.07,81.07,0,0,1,13.44-16.09A151.06,151.06,0,0,1,461.86,429a165.61,165.61,0,0,1,24.88-13.69,169.56,169.56,0,0,1,27.83-9.6,119.45,119.45,0,0,1,29.16-3.63q19.07,0,29,7.73T582.62,433.51Z" transform="translate(-398.45 -364.06)"/><path class="cls-1" d="M563.46,571.32V563l13.16-10.37c31.64-24.45,45.93-37.44,46.12-52.61,0-10.21-6.1-19.65-24.59-19.65-11.24,0-20.58,4.65-26.3,8.51l-5.34-9.59c8.58-5.88,20.78-10.21,35.08-10.21,26.68,0,37.93,14.85,37.93,29.24,0,18.57-16.59,33.58-42.7,54l-9.91,7.43V560h55.66v11.29Z" transform="translate(-398.45 -364.06)"/><path class="cls-1" d="M803,389.06a394.12,394.12,0,0,1,43.75,2.17,281.21,281.21,0,0,1,33.64,5.65A155.55,155.55,0,0,1,905,404.69a96.06,96.06,0,0,1,16.4,8.67,37.26,37.26,0,0,1,9.14,8.27c1.91,2.63,2.86,4.78,2.86,6.42,0,1.86-.89,2.79-2.66,2.79a35.66,35.66,0,0,1-5-1.39q-4.38-1.4-12.2-3.41T895,421.63q-10.77-2.38-24-4.41t-28.4-3.4q-15.17-1.4-31.74-1.39a392,392,0,0,0-45.18,2.4,348.93,348.93,0,0,0-37.45,6.26,239.12,239.12,0,0,0-30.12,8.82q-13.25,4.95-23.44,10a180.68,180.68,0,0,0-17.45,9.67q-7.23,4.63-12,8a77.38,77.38,0,0,1,36.59,14.24c1.91-.52,3.82-.95,5.72-1.32s3.81-.74,5.72-1.16a124.51,124.51,0,0,1,12.49-15.86,189.79,189.79,0,0,1,14.48-14.07,177.13,177.13,0,0,1,15.54-12.15,161,161,0,0,1,15.82-9.75,76.78,76.78,0,0,1,11,1.24A61.7,61.7,0,0,1,774.07,422a221.57,221.57,0,0,0-20.87,17.64,136.2,136.2,0,0,0-19.92,23.67c1,0,1.93,0,2.76-.08s1.69-.08,2.58-.08q9.9,0,15.72,1.94a22.24,22.24,0,0,1,8.77,4.87,10.66,10.66,0,0,1,3.34,6.42,15.38,15.38,0,0,1-.57,6.42,12.83,12.83,0,0,1-2.77,4.88c-1.21,1.29-2.32,1.93-3.33,1.93a15.86,15.86,0,0,0-3.15-2.78,22.38,22.38,0,0,0-5.34-2.56,44.38,44.38,0,0,0-8.19-1.85,83.36,83.36,0,0,0-11.73-.7q-9.15,0-17.82.39t-17.06,1q5.14.31,12.2,1a60.78,60.78,0,0,1,13.15,2.71,59.91,59.91,0,0,0-2.29,9.51,64.59,64.59,0,0,0-.76,9.83q0,9.12,3.34,14.69a29.3,29.3,0,0,0,18.39,13.93,19.46,19.46,0,0,1-5.52,7.43,32.65,32.65,0,0,1-9.06,5.1q-5.82,2.32-15.15,2.32-9.54,0-16-3a30.19,30.19,0,0,1-10.49-7.73,29,29,0,0,1-5.72-10.37,37.54,37.54,0,0,1-1.71-10.9,59.81,59.81,0,0,1,.67-9.06,87.6,87.6,0,0,1,1.81-8.89,42.92,42.92,0,0,0-6.29-14.08l-12.49,1.7c-3.75.52-7,1-9.63,1.55-3.17.52-6,1-8.38,1.39a3.72,3.72,0,0,1-2.67-.77,2.75,2.75,0,0,1-.76-2q0-2.18,7.34-5.26A149.33,149.33,0,0,1,665.23,476a46.55,46.55,0,0,0-13-8.9,38.64,38.64,0,0,0-16.58-3.48,4.72,4.72,0,0,1-2.58-1.32,5,5,0,0,1-1.62-4.1q0-6,3.81-13.53t12.3-15.17a114.24,114.24,0,0,1,21.82-14.93,170.88,170.88,0,0,1,32.41-13A289.63,289.63,0,0,1,746,392.47,427.64,427.64,0,0,1,803,389.06Z" transform="translate(-398.45 -364.06)"/><path class="cls-2" d="M580.62,438.51a38.49,38.49,0,0,1-4.39,17.17,76.78,76.78,0,0,1-11.82,17.1,115.68,115.68,0,0,1-17.34,15.62,144.71,144.71,0,0,1-20.78,12.85A126.56,126.56,0,0,1,504.08,510a78.77,78.77,0,0,1-21.63,3.25,70.38,70.38,0,0,1-10.58-.7,32.91,32.91,0,0,1-7.15-1.78c1.78.83,4.32,1.83,7.63,3a54.13,54.13,0,0,0,12.39,2.55,97.35,97.35,0,0,0-1.34,13.77A76,76,0,0,0,484.55,545q1.14,7,3.62,10.76A20.49,20.49,0,0,1,491,561.2c.12.51-.76,1-2.67,1.55a40.77,40.77,0,0,1-5.34,1.08c-.89.1-2.7.2-5.43.31a23,23,0,0,1-17.82-8q-4.2-4.64-5.72-14.23a40.71,40.71,0,0,1,.76-16.56,80.39,80.39,0,0,1,6.29-16.86q-2.67-3.4,3.81-7a127.44,127.44,0,0,1,10.49-14.86,137.18,137.18,0,0,1,11.24-12.22,82.81,82.81,0,0,1,10.2-8.43q4.67-3.17,7.53-3.48,2.67-.32,3.24,3.09a12.34,12.34,0,0,1-1.9,3.17q-1.92,2.72-4.87,7.35t-6.38,11.14a98.33,98.33,0,0,0-6.1,14.39A35.23,35.23,0,0,0,502,497.22a68.48,68.48,0,0,0,13.34-9.59,110.23,110.23,0,0,0,12.11-13A129.27,129.27,0,0,0,537.54,460a100.94,100.94,0,0,0,7.15-14.54A49.8,49.8,0,0,0,548,432.86c.38-3.66-.09-6.6-1.43-8.82s-3.65-3.33-7-3.33A53.91,53.91,0,0,0,519.52,425a111.48,111.48,0,0,0-20.77,11.14,143.71,143.71,0,0,0-19.35,15.7,167.14,167.14,0,0,0-16.11,17.79,101.7,101.7,0,0,0-11.05,17.33q-4.1,8.35-4.1,14.55a3.33,3.33,0,0,1-1,.77,4.56,4.56,0,0,1-1.35.46,11.77,11.77,0,0,1-2.3.16,34.52,34.52,0,0,1-5.09-.62,21.52,21.52,0,0,1-7.39-2.94,20.93,20.93,0,0,1-6.72-6.81c-1.91-3-2.88-7.06-2.88-12.22q0-6.34,4.9-14.31a81.07,81.07,0,0,1,13.44-16.09A151.06,151.06,0,0,1,459.86,434a165.61,165.61,0,0,1,24.88-13.69,169.56,169.56,0,0,1,27.83-9.6,119.45,119.45,0,0,1,29.16-3.63q19.07,0,29,7.73T580.62,438.51Z" transform="translate(-398.45 -364.06)"/><path class="cls-2" d="M561.46,576.32V568l13.16-10.37c31.64-24.45,45.93-37.44,46.12-52.61,0-10.21-6.1-19.65-24.59-19.65-11.24,0-20.58,4.65-26.3,8.51l-5.34-9.59c8.58-5.88,20.78-10.21,35.08-10.21,26.68,0,37.93,14.85,37.93,29.24,0,18.57-16.59,33.58-42.7,54l-9.91,7.43V565h55.66v11.29Z" transform="translate(-398.45 -364.06)"/><path class="cls-2" d="M801,394.06a394.12,394.12,0,0,1,43.75,2.17,281.21,281.21,0,0,1,33.64,5.65A155.55,155.55,0,0,1,903,409.69a96.06,96.06,0,0,1,16.4,8.67,37.26,37.26,0,0,1,9.14,8.27c1.91,2.63,2.86,4.78,2.86,6.42,0,1.86-.89,2.79-2.66,2.79a37.38,37.38,0,0,1-5-1.39q-4.38-1.4-12.2-3.41T893,426.63q-10.77-2.38-24-4.41t-28.4-3.4q-15.17-1.4-31.74-1.39a392,392,0,0,0-45.18,2.4,348.93,348.93,0,0,0-37.45,6.26,239.12,239.12,0,0,0-30.12,8.82q-13.25,4.95-23.44,10a180.68,180.68,0,0,0-17.45,9.67q-7.23,4.63-12,8a77.38,77.38,0,0,1,36.59,14.24c1.91-.52,3.82-.95,5.72-1.32s3.81-.74,5.72-1.16a124.51,124.51,0,0,1,12.49-15.86,189.79,189.79,0,0,1,14.48-14.07,177.13,177.13,0,0,1,15.54-12.15,161,161,0,0,1,15.82-9.75,76.78,76.78,0,0,1,11,1.24A61.7,61.7,0,0,1,772.07,427a221.57,221.57,0,0,0-20.87,17.64,136.2,136.2,0,0,0-19.92,23.67c1,0,1.93,0,2.76-.08s1.69-.08,2.58-.08q9.9,0,15.72,1.94a22.24,22.24,0,0,1,8.77,4.87,10.66,10.66,0,0,1,3.34,6.42,15.38,15.38,0,0,1-.57,6.42,12.83,12.83,0,0,1-2.77,4.88c-1.21,1.29-2.32,1.93-3.33,1.93a15.86,15.86,0,0,0-3.15-2.78,22.38,22.38,0,0,0-5.34-2.56,44.38,44.38,0,0,0-8.19-1.85,83.36,83.36,0,0,0-11.73-.7q-9.15,0-17.82.39t-17.06,1q5.14.31,12.2,1a60.78,60.78,0,0,1,13.15,2.71,59.91,59.91,0,0,0-2.29,9.51,64.59,64.59,0,0,0-.76,9.83q0,9.12,3.34,14.69a29.3,29.3,0,0,0,18.39,13.93,19.46,19.46,0,0,1-5.52,7.43,32.65,32.65,0,0,1-9.06,5.1q-5.82,2.32-15.15,2.32-9.54,0-16-3a30.19,30.19,0,0,1-10.49-7.73,29,29,0,0,1-5.72-10.37,37.54,37.54,0,0,1-1.71-10.9,59.81,59.81,0,0,1,.67-9.06,87.6,87.6,0,0,1,1.81-8.89,42.92,42.92,0,0,0-6.29-14.08l-12.49,1.7c-3.75.52-7,1-9.63,1.55-3.17.51-6,1-8.38,1.39a3.72,3.72,0,0,1-2.67-.77,2.75,2.75,0,0,1-.76-2q0-2.18,7.34-5.26A149.33,149.33,0,0,1,663.23,481a46.55,46.55,0,0,0-13-8.9,38.64,38.64,0,0,0-16.58-3.48,4.72,4.72,0,0,1-2.58-1.32,5,5,0,0,1-1.62-4.1q0-6,3.81-13.53t12.3-15.17a114.24,114.24,0,0,1,21.82-14.93,170.88,170.88,0,0,1,32.41-13A289.63,289.63,0,0,1,744,397.47,427.64,427.64,0,0,1,801,394.06Z" transform="translate(-398.45 -364.06)"/></svg>